<svg width="42" height="42" viewBox="0 0 42 42" fill="none"
    xmlns="http://www.w3.org/2000/svg">
    <g opacity="0.15">
        <path d="M39 16.4138L36.4035 19.0345H30.6243H26.6668V25.9185V28.1378L27.2815 26.8966H28.6479L29.3311 28.2759L30.6222 28.8143L32.0714 28.3266L32.5545 28.8143L32.6019 28.8621H36.4035L39 26.2414V16.4138Z" fill="url(#paint0_linear_6802_201100)"/>
        <path d="M36.4035 19.0345L39 16.4138H31.7803H29.2632L26.6668 19.0345H30.6243H36.4035Z" fill="url(#paint1_linear_6802_201100)"/>
        <path d="M26.6668 19.0345L29.2632 16.4138H31.7803L32.9797 13.6947L28.2358 11.5629L30.3479 6.77462L22.6389 3.31034L18.8771 11.8385V22.4179L26.6668 25.9185V19.0345Z" fill="url(#paint2_linear_6802_201100)"/>
        <path d="M30.3479 6.77462L28.2358 11.5629L32.9797 13.6947L30.3479 6.77462Z" fill="url(#paint3_linear_6802_201100)"/>
        <path fill-rule="evenodd" clip-rule="evenodd" d="M28.6479 26.8966H27.2815L26.6668 28.1378L26.5983 28.2759L25.3073 28.8143L23.858 28.3266L22.8918 29.302L23.3749 30.765L22.8399 32.0682L21.4735 32.7578V34.1372L22.8399 34.8268L23.3751 36.1313L22.892 37.5943L23.8582 38.5696L25.3075 38.082L26.5982 38.6207L27.2814 40H28.6478L29.331 38.6207L30.6226 38.0817L32.0719 38.5693L33.0381 37.594L32.555 36.131L33.0895 34.8272L34.4559 34.1375V32.7582L33.0895 32.0685L32.5545 30.7649L33.0376 29.3019L32.6019 28.8621L32.5545 28.8143L32.0714 28.3266L30.6222 28.8143L29.3311 28.2759L28.6479 26.8966ZM27.9647 36.069C29.3987 36.069 30.5612 34.8956 30.5612 33.4483C30.5612 32.0009 29.3987 30.8276 27.9647 30.8276C26.5307 30.8276 25.3682 32.0009 25.3682 33.4483C25.3682 34.8956 26.5307 36.069 27.9647 36.069Z" fill="url(#paint4_linear_6802_201100)"/>
        <path d="M18.8771 30.8276H14.3332V34.7241C14.3332 35.8287 15.2287 36.7241 16.3332 36.7241H18.8771V30.8276Z" fill="url(#paint5_linear_6802_201100)"/>
        <path d="M18.8771 28.2069C16.8605 28.2069 14.9633 27.6913 13.3077 26.7835C13.2161 26.7333 13.1252 26.6818 13.035 26.6292V29.5293C13.035 30.2463 13.6162 30.8276 14.3332 30.8276V30.8276H18.8771V28.2069Z" fill="url(#paint6_linear_6802_201100)"/>
        <path d="M13.3077 26.7835C14.9633 27.6913 16.8605 28.2069 18.8771 28.2069V22.4179V11.8385V4.62069C14.5523 4.62069 10.7763 6.99227 8.75607 10.5172C8.07808 11.7704 7.84055 12.4939 7.48247 13.7931C7.29299 14.6359 7.19294 15.5131 7.19294 16.4138C7.19294 20.7789 9.54261 24.5901 13.035 26.6292C13.1252 26.6818 13.2161 26.7333 13.3077 26.7835Z" fill="url(#paint7_linear_6802_201100)"/>
    </g>
    <path d="M18.8771 28.2069C12.4241 28.2069 7.19294 22.9269 7.19294 16.4138C7.19294 15.5131 7.29299 14.6359 7.48247 13.7931M18.8771 4.62069C14.5523 4.62069 10.7763 6.99227 8.75607 10.5172M13.035 26.6292V29.5293C13.035 30.2463 13.6162 30.8276 14.3332 30.8276V30.8276M18.8771 30.8276H14.3332M14.3332 30.8276V34.7241C14.3332 35.8287 15.2287 36.7241 16.3332 36.7241H18.8771M8.49118 27.5517L7.19294 28.8621M2 17.069H3.94735M8.49118 6.58621L7.19294 5.27586M18.8771 2V11.8385M18.8771 40V22.4179M26.6668 19.0345L29.2632 16.4138H31.7803M26.6668 19.0345H30.6243H36.4035M26.6668 19.0345V25.9185M36.4035 19.0345L39 16.4138M36.4035 19.0345V22.3103M39 16.4138V26.2414L36.4035 28.8621M39 16.4138H31.7803M36.4035 28.8621V25.5862M36.4035 28.8621H32.6019M30.3479 6.77462L22.6389 3.31034L18.8771 11.8385M30.3479 6.77462L28.2358 11.5629L32.9797 13.6947M30.3479 6.77462L32.9797 13.6947M32.9797 13.6947L31.7803 16.4138M26.6668 25.9185V28.1378M26.6668 25.9185L18.8771 22.4179M26.6668 28.1378L27.2815 26.8966H28.6479L29.3311 28.2759L30.6222 28.8143L32.0714 28.3266L32.5545 28.8143L32.6019 28.8621M26.6668 28.1378L26.5983 28.2759L25.3073 28.8143L23.858 28.3266L22.8918 29.302L23.3749 30.765L22.8399 32.0682L21.4735 32.7578V34.1372L22.8399 34.8268L23.3751 36.1313L22.892 37.5943L23.8582 38.5696L25.3075 38.082L26.5982 38.6207L27.2814 40H28.6478L29.331 38.6207L30.6226 38.0817L32.0719 38.5693L33.0381 37.594L32.555 36.131L33.0895 34.8272L34.4559 34.1375V32.7582L33.0895 32.0685L32.5545 30.7649L33.0376 29.3019L32.6019 28.8621M18.8771 11.8385V22.4179M30.5612 33.4483C30.5612 34.8956 29.3987 36.069 27.9647 36.069C26.5307 36.069 25.3682 34.8956 25.3682 33.4483C25.3682 32.0009 26.5307 30.8276 27.9647 30.8276C29.3987 30.8276 30.5612 32.0009 30.5612 33.4483Z" stroke="url(#paint8_linear_6802_201100)" stroke-width="1.6" stroke-linecap="round" stroke-linejoin="round"/>
    <defs>
        <linearGradient id="paint0_linear_6802_201100" x1="4.09666" y1="2" x2="36.9783" y2="37.3539" gradientUnits="userSpaceOnUse">
            <stop offset="0.259336" stop-color="#FFDB6E"/>
            <stop offset="1" stop-color="#FFBC5E"/>
        </linearGradient>
        <linearGradient id="paint1_linear_6802_201100" x1="4.09666" y1="2" x2="36.9783" y2="37.3539" gradientUnits="userSpaceOnUse">
            <stop offset="0.259336" stop-color="#FFDB6E"/>
            <stop offset="1" stop-color="#FFBC5E"/>
        </linearGradient>
        <linearGradient id="paint2_linear_6802_201100" x1="4.09666" y1="2" x2="36.9783" y2="37.3539" gradientUnits="userSpaceOnUse">
            <stop offset="0.259336" stop-color="#FFDB6E"/>
            <stop offset="1" stop-color="#FFBC5E"/>
        </linearGradient>
        <linearGradient id="paint3_linear_6802_201100" x1="4.09666" y1="2" x2="36.9783" y2="37.3539" gradientUnits="userSpaceOnUse">
            <stop offset="0.259336" stop-color="#FFDB6E"/>
            <stop offset="1" stop-color="#FFBC5E"/>
        </linearGradient>
        <linearGradient id="paint4_linear_6802_201100" x1="4.09666" y1="2" x2="36.9783" y2="37.3539" gradientUnits="userSpaceOnUse">
            <stop offset="0.259336" stop-color="#FFDB6E"/>
            <stop offset="1" stop-color="#FFBC5E"/>
        </linearGradient>
        <linearGradient id="paint5_linear_6802_201100" x1="4.09666" y1="2" x2="36.9783" y2="37.3539" gradientUnits="userSpaceOnUse">
            <stop offset="0.259336" stop-color="#FFDB6E"/>
            <stop offset="1" stop-color="#FFBC5E"/>
        </linearGradient>
        <linearGradient id="paint6_linear_6802_201100" x1="4.09666" y1="2" x2="36.9783" y2="37.3539" gradientUnits="userSpaceOnUse">
            <stop offset="0.259336" stop-color="#FFDB6E"/>
            <stop offset="1" stop-color="#FFBC5E"/>
        </linearGradient>
        <linearGradient id="paint7_linear_6802_201100" x1="4.09666" y1="2" x2="36.9783" y2="37.3539" gradientUnits="userSpaceOnUse">
            <stop offset="0.259336" stop-color="#FFDB6E"/>
            <stop offset="1" stop-color="#FFBC5E"/>
        </linearGradient>
        <linearGradient id="paint8_linear_6802_201100" x1="2.95637" y1="4.62069" x2="27.1429" y2="18.6613" gradientUnits="userSpaceOnUse">
            <stop offset="0.259336" stop-color="#FFDB6E"/>
            <stop offset="1" stop-color="#FFBC5E"/>
        </linearGradient>
    </defs>
</svg>
